PathFileType	4	(X/Y/Z)
DataRate	CameraRate	NumFrames	NumMarkers	Units	OrigDataRate	OrigDataStartFrame	OrigNumFrames	
  120.0	  120.0	    4	     56	     mm	  120.0	      345	    688
Frame#	Time	LASI			RASI			LPSI			RPSI			RTH1			RTH2			RTH3			RLFC			RMFC			LTH1			LTH2			LTH3			LLFC			LMFC			RTB1			RTB2			RTB3			RLMAL			RMMAL			LTB1			LTB2			LTB3			LMMAL			LLMAL			RCAL			RTOE			RMT5			LCAL			LTOE			LMT5			LACR			RACR			CLAV			C7			LASH			LPSH			RASH			RPSH			RUA1			RUA2			RUA3			RLEL			RMEL			LUA1			LUA2			LUA3			LLEL			LMEL			RFAsuperior			RFAradius			RFAulna			LFAsuperior			LFAradius			LFAulna			RHJC			LHJC			
		X1	Y1	Z1	X2	Y2	Z2	X3	Y3	Z3	X4	Y4	Z4	X5	Y5	Z5	X6	Y6	Z6	X7	Y7	Z7	X8	Y8	Z8	X9	Y9	Z9	X10	Y10	Z10	X11	Y11	Z11	X12	Y12	Z12	X13	Y13	Z13	X14	Y14	Z14	X15	Y15	Z15	X16	Y16	Z16	X17	Y17	Z17	X18	Y18	Z18	X19	Y19	Z19	X20	Y20	Z20	X21	Y21	Z21	X22	Y22	Z22	X23	Y23	Z23	X24	Y24	Z24	X25	Y25	Z25	X26	Y26	Z26	X27	Y27	Z27	X28	Y28	Z28	X29	Y29	Z29	X30	Y30	Z30	X31	Y31	Z31	X32	Y32	Z32	X33	Y33	Z33	X34	Y34	Z34	X35	Y35	Z35	X36	Y36	Z36	X37	Y37	Z37	X38	Y38	Z38	X39	Y39	Z39	X40	Y40	Z40	X41	Y41	Z41	X42	Y42	Z42	X43	Y43	Z43	X44	Y44	Z44	X45	Y45	Z45	X46	Y46	Z46	X47	Y47	Z47	X48	Y48	Z48	X49	Y49	Z49	X50	Y50	Z50	X51	Y51	Z51	X52	Y52	Z52	X53	Y53	Z53	X54	Y54	Z54	X55	Y55	Z55	X56	Y56	Z56	

394	3.28333	621.98979	1017.75922	-669.02715	807.12648	1024.76618	-517.36249	565.21029	1044.75949	-497.23951	641.15525	1046.37844	-435.96400	817.88772	875.83132	-413.21965	851.01462	732.39992	-454.22876	804.55806	642.26306	-400.28466	829.86979	540.19490	-404.15900	728.08666	519.07420	-479.30629	505.93823	856.97584	-643.65703	543.85611	750.94893	-686.51110	492.60150	639.16912	-603.81408	488.91421	538.00560	-619.11617	591.90190	514.31060	-558.53455	820.93984	401.32252	-439.09872	832.45923	360.42807	-349.99722	817.27993	226.73372	-395.02876	809.01565	122.60410	-317.43787	754.48604	128.26074	-390.14519	524.09566	395.46645	-624.00250	446.81223	312.76603	-601.77398	500.87670	205.36741	-593.69616	523.40178	122.51971	-543.35575	434.34189	116.72190	-558.03699	726.50807	84.75038	-302.33141	859.01521	79.32602	-468.94024	925.83297	48.51740	-388.52903	452.21297	86.40288	-479.69161	556.36122	74.51849	-661.71431	454.54415	44.86673	-692.24403	486.72561	1516.36301	-569.53044	744.18595	1502.72020	-387.62931	696.88802	1463.71075	-551.94502	602.34531	1519.96678	-466.01765	546.23730	1492.84953	-619.21424	465.97817	1466.99804	-536.11614	779.76421	1477.65245	-454.98066	715.05732	1461.23496	-356.70939	807.16071	1470.56368	-345.67281	884.47966	1445.28421	-379.08036	881.41940	1397.84737	-308.72021	996.49830	1382.25371	-288.25199	981.06749	1329.08161	-320.21835	423.17039	1474.76334	-614.29475	407.91504	1399.72740	-631.29802	394.41374	1442.88261	-712.50949	315.47501	1381.21894	-779.72840	346.14775	1326.76010	-764.43157	1058.74032	1423.12696	-350.13283	1211.61609	1405.99540	-467.90898	1239.11607	1390.49444	-407.55552	351.02842	1413.07264	-848.69350	453.35228	1390.38132	-1027.66264	388.39055	1371.16654	-1044.15486	739.57148	968.42796	-491.96686	610.08811	956.98996	-597.66084	
395	3.29167	621.99810	1017.75483	-669.05437	807.14192	1024.77031	-517.37625	565.22214	1044.76278	-497.25527	641.19064	1046.37544	-435.98529	817.90500	875.83987	-413.24517	851.01795	732.40825	-454.21947	804.56403	642.26834	-400.26774	829.88204	540.19925	-404.16467	728.09186	519.07234	-479.32962	505.94567	856.97040	-643.67043	543.87851	750.94060	-686.52149	492.61331	639.16163	-603.81511	488.92238	537.99952	-619.12556	591.90867	514.30741	-558.52790	820.93873	401.33306	-439.11925	832.46989	360.44348	-349.98440	817.26283	226.71948	-394.97579	809.02397	122.60919	-317.43079	754.48030	128.26640	-390.14755	524.09137	395.45948	-623.98867	446.81463	312.76845	-601.76818	500.86777	205.36154	-593.68118	523.39719	122.51687	-543.35745	434.34871	116.72480	-558.03172	726.48992	84.68664	-302.30506	859.01831	79.31951	-468.95073	925.81809	48.53969	-388.50802	452.23201	86.39560	-479.68752	556.36032	74.51548	-661.72030	454.54448	44.86899	-692.24484	486.69913	1516.34231	-569.56383	744.17969	1502.74670	-387.68363	696.86705	1463.69966	-551.99568	602.33910	1519.97691	-466.08638	546.19669	1492.81524	-619.20434	465.96359	1466.98666	-536.13026	779.75908	1477.65786	-455.06053	715.06252	1461.24940	-356.76514	807.17332	1470.58988	-345.71790	884.48266	1445.30865	-379.16620	881.43360	1397.86819	-308.80533	996.51635	1382.29584	-288.32462	981.08249	1329.11382	-320.29620	423.14394	1474.71582	-614.32398	407.90937	1399.69865	-631.32722	394.37829	1442.86239	-712.50817	315.44743	1381.15794	-779.76227	346.12780	1326.70841	-764.44948	1058.74578	1423.18119	-350.20889	1211.62488	1406.06956	-467.95809	1239.12805	1390.55617	-407.59505	350.98707	1413.00033	-848.73987	453.35501	1390.42879	-1027.83023	388.34251	1371.10345	-1044.19216	739.59185	968.42960	-491.98927	610.10161	956.98806	-597.67515	
396	3.30000	622.00857	1017.74774	-669.08674	807.15968	1024.77769	-517.41655	565.23168	1044.76234	-497.28492	641.21893	1046.37480	-436.02732	817.92241	875.85954	-413.27640	851.01980	732.41237	-454.23255	804.55895	642.26942	-400.27289	829.89090	540.20105	-404.18326	728.10920	519.07929	-479.35501	505.95871	856.95511	-643.68728	543.90307	750.92634	-686.52551	492.62637	639.14553	-603.81741	488.94153	537.98829	-619.14131	591.91084	514.29917	-558.53138	820.94450	401.34311	-439.14414	832.47515	360.45722	-350.00264	817.27158	226.71665	-394.95292	809.02669	122.60969	-317.43443	754.47830	128.26609	-390.15287	524.08881	395.44798	-623.96755	446.81502	312.76460	-601.75065	500.87859	205.36853	-593.70979	523.40064	122.51599	-543.36987	434.35209	116.72317	-558.03852	726.48656	84.64822	-302.29033	859.02181	79.31821	-468.97735	925.81708	48.56329	-388.49510	452.24130	86.39128	-479.68582	556.36428	74.51182	-661.73352	454.54314	44.85833	-692.24325	486.67848	1516.31688	-569.60217	744.17631	1502.77693	-387.74069	696.85348	1463.69901	-552.06069	602.32880	1519.98455	-466.15658	546.17191	1492.78606	-619.21951	465.94145	1466.93778	-536.15348	779.75718	1477.67689	-455.13540	715.05797	1461.26742	-356.82858	807.17834	1470.61194	-345.78787	884.48046	1445.33206	-379.27711	881.43563	1397.88144	-308.90231	996.52370	1382.32751	-288.40798	981.09277	1329.13960	-320.40060	423.10863	1474.66591	-614.35361	407.89742	1399.66980	-631.37133	394.35527	1442.84044	-712.50875	315.42033	1381.10403	-779.81024	346.10692	1326.65058	-764.47641	1058.75111	1423.24351	-350.27795	1211.61723	1406.18107	-468.20450	1239.13264	1390.61295	-407.68129	350.94830	1412.92703	-848.78949	453.32128	1390.33516	-1027.85434	388.29754	1371.03492	-1044.22985	739.61236	968.43486	-492.02504	610.11930	956.98293	-597.70625	
397	3.30833	622.01904	1017.73927	-669.11992	807.18098	1024.78547	-517.47738	565.24103	1044.76284	-497.31957	641.23771	1046.38113	-436.08043	817.93448	875.88242	-413.31063	851.02652	732.40943	-454.27157	804.55136	642.28101	-400.30640	829.89647	540.19707	-404.21137	728.13824	519.09539	-479.35770	505.98024	856.93549	-643.70767	543.92463	750.90872	-686.53174	492.63920	639.12739	-603.82559	488.96760	537.97573	-619.15787	591.90906	514.29021	-558.55067	820.95874	401.34571	-439.16414	832.47349	360.45881	-350.05840	817.30515	226.72532	-394.96705	809.02226	122.60624	-317.44761	754.48311	128.26062	-390.15876	524.09190	395.43632	-623.95815	446.81639	312.75786	-601.73808	500.90128	205.37996	-593.75481	523.41246	122.51661	-543.38727	434.35030	116.71835	-558.05191	726.50135	84.64909	-302.28899	859.02718	79.32310	-469.00434	925.82981	48.57315	-388.50290	452.23644	86.39068	-479.68935	556.37201	74.50901	-661.74315	454.54338	44.83823	-692.24086	486.66068	1516.29057	-569.65892	744.16918	1502.80208	-387.81465	696.84502	1463.70309	-552.14668	602.31029	1519.98794	-466.22867	546.16351	1492.76152	-619.27476	465.91511	1466.86638	-536.18240	779.75633	1477.70754	-455.20548	715.04060	1461.28960	-356.89959	807.16765	1470.62378	-345.89522	884.47086	1445.35891	-379.39023	881.42730	1397.89568	-308.99861	996.52203	1382.35345	-288.49498	981.09636	1329.16690	-320.51870	423.07200	1474.62138	-614.39329	407.87636	1399.64282	-631.42395	394.33940	1442.81553	-712.51682	315.38961	1381.05818	-779.85789	346.08371	1326.59351	-764.51048	1058.75308	1423.30740	-350.33810	1211.59443	1406.32947	-468.64945	1239.12893	1390.66732	-407.80995	350.91026	1412.86213	-848.83650	453.23190	1390.07888	-1027.70823	388.25406	1370.96508	-1044.27206	739.63151	968.44325	-492.06796	610.13771	956.97738	-597.74591	
